<svg width="19" height="19" viewBox="0 0 19 19" fill="none" xmlns="http://www.w3.org/2000/svg">
<path d="M9.17206 0.944476C9.3119 0.351841 10.1553 0.351842 10.2952 0.944477L11.7447 7.08731C11.7949 7.30005 11.961 7.46616 12.1738 7.51636L18.3166 8.96588C18.9092 9.10573 18.9092 9.94917 18.3166 10.089L12.1738 11.5385C11.961 11.5887 11.7949 11.7548 11.7447 11.9676L10.2952 18.1104C10.1553 18.7031 9.3119 18.7031 9.17206 18.1104L7.72254 11.9676C7.67233 11.7548 7.50623 11.5887 7.29348 11.5385L1.15065 10.089C0.558017 9.94917 0.558018 9.10573 1.15065 8.96588L7.29348 7.51636C7.50623 7.46616 7.67233 7.30005 7.72254 7.08731L9.17206 0.944476Z" fill="white"/>
</svg>
